<svg version="1.1" xmlns="http://www.w3.org/2000/svg" xmlns:xlink="http://www.w3.org/1999/xlink" width="2164" height="1474"><defs><clipPath id="QVwvFGHloMUv"><path fill="none" stroke="none" d=" M 0 0 L 2164 0 L 2164 1474 L 0 1474 L 0 0 Z"/></clipPath></defs><g transform="scale(1,1)" clip-path="url(#QVwvFGHloMUv)"><g><rect fill="rgb(255,255,255)" stroke="none" x="0" y="0" width="2164" height="1474" fill-opacity="1"/><path fill="none" stroke="rgb(97,97,97)" paint-order="fill stroke markers" d=" M 726.6838865965319 125.7018395590494 L 1750.7704126854433 1293.4385118414282" stroke-opacity="0.8" stroke-linecap="round" stroke-linejoin="round" stroke-miterlimit="10" stroke-width="2.5"/><path fill="none" stroke="rgb(97,97,97)" paint-order="fill stroke markers" d=" M 1043.572328001951 487.04069582224247 L 631.6894350814969 1284.1707604741077" stroke-opacity="0.8" stroke-linecap="round" stroke-linejoin="round" stroke-miterlimit="10" stroke-width="2.5"/><path fill="none" stroke="rgb(97,97,97)" paint-order="fill stroke markers" d=" M 631.6894350814969 1284.1707604741077 L 1750.7704126854433 1293.4385118414282" stroke-opacity="0.8" stroke-linecap="round" stroke-linejoin="round" stroke-miterlimit="10" stroke-width="2.5"/><path fill="none" stroke="rgb(97,97,97)" paint-order="fill stroke markers" d=" M 726.6838865965319 125.7018395590494 L 1187.7931286135304 1288.776174085139" stroke-opacity="0.8" stroke-linecap="round" stroke-linejoin="round" stroke-miterlimit="10" stroke-width="2.5"/><path fill="rgb(0,0,0)" stroke="none" paint-order="stroke fill markers" d=" M 636.6894350814969 1284.1707604741077 C 636.6894350814969 1286.9321842232616 634.4508588306509 1289.1707604741077 631.6894350814969 1289.1707604741077 C 628.9280113323429 1289.1707604741077 626.6894350814969 1286.9321842232616 626.6894350814969 1284.1707604741077 C 626.6894350814969 1281.4093367249538 628.9280113323429 1279.1707604741077 631.6894350814969 1279.1707604741077 C 634.4508588306509 1279.1707604741077 636.6894350814969 1281.4093367249538 636.6894350814969 1284.1707604741077 Z" fill-opacity="1"/><path fill="none" stroke="rgb(0,0,0)" paint-order="fill stroke markers" d=" M 636.6894350814969 1284.1707604741077 C 636.6894350814969 1286.9321842232616 634.4508588306509 1289.1707604741077 631.6894350814969 1289.1707604741077 C 628.9280113323429 1289.1707604741077 626.6894350814969 1286.9321842232616 626.6894350814969 1284.1707604741077 C 626.6894350814969 1281.4093367249538 628.9280113323429 1279.1707604741077 631.6894350814969 1279.1707604741077 C 634.4508588306509 1279.1707604741077 636.6894350814969 1281.4093367249538 636.6894350814969 1284.1707604741077 Z" stroke-opacity="1" stroke-linecap="round" stroke-linejoin="round" stroke-miterlimit="10"/><text fill="rgb(0,0,0)" stroke="none" font-family="geogebra-sans-serif, sans-serif" font-size="16px" font-style="normal" font-weight="normal" text-decoration="normal" x="636" y="1274" text-anchor="start" dominant-baseline="alphabetic" fill-opacity="1">A</text><text fill="none" stroke="rgb(255,255,255)" font-family="geogebra-sans-serif, sans-serif" font-size="16px" font-style="normal" font-weight="normal" text-decoration="normal" x="636" y="1274" text-anchor="start" dominant-baseline="alphabetic" stroke-opacity="1" stroke-linejoin="bevel" stroke-miterlimit="10" stroke-width="3">A</text><text fill="rgb(0,0,0)" stroke="none" font-family="geogebra-sans-serif, sans-serif" font-size="16px" font-style="normal" font-weight="normal" text-decoration="normal" x="636" y="1274" text-anchor="start" dominant-baseline="alphabetic" fill-opacity="1">A</text><path fill="rgb(0,0,0)" stroke="none" paint-order="stroke fill markers" d=" M 1755.7704126854433 1293.4385118414282 C 1755.7704126854433 1296.199935590582 1753.5318364345972 1298.4385118414282 1750.7704126854433 1298.4385118414282 C 1748.0089889362894 1298.4385118414282 1745.7704126854433 1296.199935590582 1745.7704126854433 1293.4385118414282 C 1745.7704126854433 1290.6770880922743 1748.0089889362894 1288.4385118414282 1750.7704126854433 1288.4385118414282 C 1753.5318364345972 1288.4385118414282 1755.7704126854433 1290.6770880922743 1755.7704126854433 1293.4385118414282 Z" fill-opacity="1"/><path fill="none" stroke="rgb(0,0,0)" paint-order="fill stroke markers" d=" M 1755.7704126854433 1293.4385118414282 C 1755.7704126854433 1296.199935590582 1753.5318364345972 1298.4385118414282 1750.7704126854433 1298.4385118414282 C 1748.0089889362894 1298.4385118414282 1745.7704126854433 1296.199935590582 1745.7704126854433 1293.4385118414282 C 1745.7704126854433 1290.6770880922743 1748.0089889362894 1288.4385118414282 1750.7704126854433 1288.4385118414282 C 1753.5318364345972 1288.4385118414282 1755.7704126854433 1290.6770880922743 1755.7704126854433 1293.4385118414282 Z" stroke-opacity="1" stroke-linecap="round" stroke-linejoin="round" stroke-miterlimit="10"/><text fill="rgb(0,0,0)" stroke="none" font-family="geogebra-sans-serif, sans-serif" font-size="16px" font-style="normal" font-weight="normal" text-decoration="normal" x="1755" y="1283" text-anchor="start" dominant-baseline="alphabetic" fill-opacity="1">B</text><text fill="none" stroke="rgb(255,255,255)" font-family="geogebra-sans-serif, sans-serif" font-size="16px" font-style="normal" font-weight="normal" text-decoration="normal" x="1755" y="1283" text-anchor="start" dominant-baseline="alphabetic" stroke-opacity="1" stroke-linejoin="bevel" stroke-miterlimit="10" stroke-width="3">B</text><text fill="rgb(0,0,0)" stroke="none" font-family="geogebra-sans-serif, sans-serif" font-size="16px" font-style="normal" font-weight="normal" text-decoration="normal" x="1755" y="1283" text-anchor="start" dominant-baseline="alphabetic" fill-opacity="1">B</text><path fill="rgb(0,0,0)" stroke="none" paint-order="stroke fill markers" d=" M 731.6838865965319 125.7018395590494 C 731.6838865965319 128.46326330820338 729.4453103456859 130.7018395590494 726.6838865965319 130.7018395590494 C 723.9224628473779 130.7018395590494 721.6838865965319 128.46326330820338 721.6838865965319 125.7018395590494 C 721.6838865965319 122.94041580989544 723.9224628473779 120.7018395590494 726.6838865965319 120.7018395590494 C 729.4453103456859 120.7018395590494 731.6838865965319 122.94041580989544 731.6838865965319 125.7018395590494 Z" fill-opacity="1"/><path fill="none" stroke="rgb(0,0,0)" paint-order="fill stroke markers" d=" M 731.6838865965319 125.7018395590494 C 731.6838865965319 128.46326330820338 729.4453103456859 130.7018395590494 726.6838865965319 130.7018395590494 C 723.9224628473779 130.7018395590494 721.6838865965319 128.46326330820338 721.6838865965319 125.7018395590494 C 721.6838865965319 122.94041580989544 723.9224628473779 120.7018395590494 726.6838865965319 120.7018395590494 C 729.4453103456859 120.7018395590494 731.6838865965319 122.94041580989544 731.6838865965319 125.7018395590494 Z" stroke-opacity="1" stroke-linecap="round" stroke-linejoin="round" stroke-miterlimit="10"/><text fill="rgb(0,0,0)" stroke="none" font-family="geogebra-sans-serif, sans-serif" font-size="16px" font-style="normal" font-weight="normal" text-decoration="normal" x="731" y="116" text-anchor="start" dominant-baseline="alphabetic" fill-opacity="1">D</text><text fill="none" stroke="rgb(255,255,255)" font-family="geogebra-sans-serif, sans-serif" font-size="16px" font-style="normal" font-weight="normal" text-decoration="normal" x="731" y="116" text-anchor="start" dominant-baseline="alphabetic" stroke-opacity="1" stroke-linejoin="bevel" stroke-miterlimit="10" stroke-width="3">D</text><text fill="rgb(0,0,0)" stroke="none" font-family="geogebra-sans-serif, sans-serif" font-size="16px" font-style="normal" font-weight="normal" text-decoration="normal" x="731" y="116" text-anchor="start" dominant-baseline="alphabetic" fill-opacity="1">D</text><path fill="rgb(0,0,0)" stroke="none" paint-order="stroke fill markers" d=" M 1048.572328001951 487.04069582224247 C 1048.572328001951 489.8021195713964 1046.333751751105 492.04069582224247 1043.572328001951 492.04069582224247 C 1040.8109042527972 492.04069582224247 1038.572328001951 489.8021195713964 1038.572328001951 487.04069582224247 C 1038.572328001951 484.2792720730885 1040.8109042527972 482.04069582224247 1043.572328001951 482.04069582224247 C 1046.333751751105 482.04069582224247 1048.572328001951 484.2792720730885 1048.572328001951 487.04069582224247 Z" fill-opacity="1"/><path fill="none" stroke="rgb(0,0,0)" paint-order="fill stroke markers" d=" M 1048.572328001951 487.04069582224247 C 1048.572328001951 489.8021195713964 1046.333751751105 492.04069582224247 1043.572328001951 492.04069582224247 C 1040.8109042527972 492.04069582224247 1038.572328001951 489.8021195713964 1038.572328001951 487.04069582224247 C 1038.572328001951 484.2792720730885 1040.8109042527972 482.04069582224247 1043.572328001951 482.04069582224247 C 1046.333751751105 482.04069582224247 1048.572328001951 484.2792720730885 1048.572328001951 487.04069582224247 Z" stroke-opacity="1" stroke-linecap="round" stroke-linejoin="round" stroke-miterlimit="10"/><text fill="rgb(0,0,0)" stroke="none" font-family="geogebra-sans-serif, sans-serif" font-size="16px" font-style="normal" font-weight="normal" text-decoration="normal" x="1048" y="477" text-anchor="start" dominant-baseline="alphabetic" fill-opacity="1">C</text><text fill="none" stroke="rgb(255,255,255)" font-family="geogebra-sans-serif, sans-serif" font-size="16px" font-style="normal" font-weight="normal" text-decoration="normal" x="1048" y="477" text-anchor="start" dominant-baseline="alphabetic" stroke-opacity="1" stroke-linejoin="bevel" stroke-miterlimit="10" stroke-width="3">C</text><text fill="rgb(0,0,0)" stroke="none" font-family="geogebra-sans-serif, sans-serif" font-size="16px" font-style="normal" font-weight="normal" text-decoration="normal" x="1048" y="477" text-anchor="start" dominant-baseline="alphabetic" fill-opacity="1">C</text><path fill="rgb(0,0,0)" stroke="none" paint-order="stroke fill markers" d=" M 1192.7931286135304 1288.776174085139 C 1192.7931286135304 1291.537597834293 1190.5545523626843 1293.776174085139 1187.7931286135304 1293.776174085139 C 1185.0317048643765 1293.776174085139 1182.7931286135304 1291.537597834293 1182.7931286135304 1288.776174085139 C 1182.7931286135304 1286.0147503359851 1185.0317048643765 1283.776174085139 1187.7931286135304 1283.776174085139 C 1190.5545523626843 1283.776174085139 1192.7931286135304 1286.0147503359851 1192.7931286135304 1288.776174085139 Z" fill-opacity="1"/><path fill="none" stroke="rgb(0,0,0)" paint-order="fill stroke markers" d=" M 1192.7931286135304 1288.776174085139 C 1192.7931286135304 1291.537597834293 1190.5545523626843 1293.776174085139 1187.7931286135304 1293.776174085139 C 1185.0317048643765 1293.776174085139 1182.7931286135304 1291.537597834293 1182.7931286135304 1288.776174085139 C 1182.7931286135304 1286.0147503359851 1185.0317048643765 1283.776174085139 1187.7931286135304 1283.776174085139 C 1190.5545523626843 1283.776174085139 1192.7931286135304 1286.0147503359851 1192.7931286135304 1288.776174085139 Z" stroke-opacity="1" stroke-linecap="round" stroke-linejoin="round" stroke-miterlimit="10"/><text fill="rgb(0,0,0)" stroke="none" font-family="geogebra-sans-serif, sans-serif" font-size="16px" font-style="normal" font-weight="normal" text-decoration="normal" x="1192" y="1279" text-anchor="start" dominant-baseline="alphabetic" fill-opacity="1">F</text><text fill="none" stroke="rgb(255,255,255)" font-family="geogebra-sans-serif, sans-serif" font-size="16px" font-style="normal" font-weight="normal" text-decoration="normal" x="1192" y="1279" text-anchor="start" dominant-baseline="alphabetic" stroke-opacity="1" stroke-linejoin="bevel" stroke-miterlimit="10" stroke-width="3">F</text><text fill="rgb(0,0,0)" stroke="none" font-family="geogebra-sans-serif, sans-serif" font-size="16px" font-style="normal" font-weight="normal" text-decoration="normal" x="1192" y="1279" text-anchor="start" dominant-baseline="alphabetic" fill-opacity="1">F</text><path fill="rgb(97,97,97)" stroke="none" paint-order="stroke fill markers" d=" M 949.3233817036694 677.1850068894496 C 949.3233817036694 679.3941458887728 947.5325207029925 681.1850068894496 945.3233817036694 681.1850068894496 C 943.1142427043462 681.1850068894496 941.3233817036694 679.3941458887728 941.3233817036694 677.1850068894496 C 941.3233817036694 674.9758678901264 943.1142427043462 673.1850068894496 945.3233817036694 673.1850068894496 C 947.5325207029925 673.1850068894496 949.3233817036694 674.9758678901264 949.3233817036694 677.1850068894496 Z" fill-opacity="1"/><path fill="none" stroke="rgb(0,0,0)" paint-order="fill stroke markers" d=" M 949.3233817036694 677.1850068894496 C 949.3233817036694 679.3941458887728 947.5325207029925 681.1850068894496 945.3233817036694 681.1850068894496 C 943.1142427043462 681.1850068894496 941.3233817036694 679.3941458887728 941.3233817036694 677.1850068894496 C 941.3233817036694 674.9758678901264 943.1142427043462 673.1850068894496 945.3233817036694 673.1850068894496 C 947.5325207029925 673.1850068894496 949.3233817036694 674.9758678901264 949.3233817036694 677.1850068894496 Z" stroke-opacity="1" stroke-linecap="round" stroke-linejoin="round" stroke-miterlimit="10"/><text fill="rgb(97,97,97)" stroke="none" font-family="geogebra-sans-serif, sans-serif" font-size="16px" font-style="normal" font-weight="normal" text-decoration="normal" x="949" y="669" text-anchor="start" dominant-baseline="alphabetic" fill-opacity="1">E</text><text fill="none" stroke="rgb(255,255,255)" font-family="geogebra-sans-serif, sans-serif" font-size="16px" font-style="normal" font-weight="normal" text-decoration="normal" x="949" y="669" text-anchor="start" dominant-baseline="alphabetic" stroke-opacity="1" stroke-linejoin="bevel" stroke-miterlimit="10" stroke-width="3">E</text><text fill="rgb(97,97,97)" stroke="none" font-family="geogebra-sans-serif, sans-serif" font-size="16px" font-style="normal" font-weight="normal" text-decoration="normal" x="949" y="669" text-anchor="start" dominant-baseline="alphabetic" fill-opacity="1">E</text></g></g></svg>